<svg width="64" height="48" viewBox="0 0 64 48" fill="none" xmlns="http://www.w3.org/2000/svg">
<path d="M0 6C0 2.68629 2.68629 0 6 0H40C53.2548 0 64 10.7452 64 24V48H16C7.16344 48 0 40.8366 0 32V6Z" fill="#155DFC"/>
<path d="M21.472 22.712C20.304 23.976 18.88 24.968 17.2 25.688C15.52 26.392 13.744 26.752 11.872 26.768V23.048C13.6 23.016 15.168 22.568 16.576 21.704C18 20.824 18.992 19.648 19.552 18.176H12.232V14.48H30.856V18.176H23.944C23.848 18.576 23.688 19.056 23.464 19.616L31.72 23.672L29.872 26.936L21.472 22.712ZM31.912 29.984V33.776H11.176V29.984H19.504V25.976H23.584V29.984H31.912ZM51.1099 18.656V20.072H53.5099V23.456H51.1099V25.28H47.0539V14H51.1099V15.272H53.5099V18.656H51.1099ZM38.2459 24.824C36.9499 24.824 35.7979 24.6 34.7899 24.152C33.7979 23.704 33.0299 23.072 32.4859 22.256C31.9419 21.44 31.6699 20.496 31.6699 19.424C31.6699 18.352 31.9419 17.408 32.4859 16.592C33.0299 15.776 33.7979 15.144 34.7899 14.696C35.7979 14.248 36.9499 14.024 38.2459 14.024C39.5419 14.024 40.6859 14.248 41.6779 14.696C42.6859 15.144 43.4619 15.776 44.0059 16.592C44.5499 17.408 44.8219 18.352 44.8219 19.424C44.8219 20.496 44.5499 21.44 44.0059 22.256C43.4619 23.072 42.6859 23.704 41.6779 24.152C40.6859 24.6 39.5419 24.824 38.2459 24.824ZM38.2459 17.312C37.4619 17.312 36.8379 17.504 36.3739 17.888C35.9259 18.272 35.7019 18.784 35.7019 19.424C35.7019 20.064 35.9259 20.576 36.3739 20.96C36.8379 21.344 37.4619 21.536 38.2459 21.536C39.0299 21.536 39.6459 21.344 40.0939 20.96C40.5579 20.576 40.7899 20.064 40.7899 19.424C40.7899 18.784 40.5579 18.272 40.0939 17.888C39.6459 17.504 39.0299 17.312 38.2459 17.312ZM42.1819 25.568C44.9499 25.568 47.1579 25.936 48.8059 26.672C50.4699 27.392 51.3019 28.552 51.3019 30.152C51.3019 31.752 50.4699 32.912 48.8059 33.632C47.1579 34.368 44.9499 34.736 42.1819 34.736C39.4139 34.736 37.1979 34.368 35.5339 33.632C33.8859 32.912 33.0619 31.752 33.0619 30.152C33.0619 28.552 33.8859 27.392 35.5339 26.672C37.1979 25.936 39.4139 25.568 42.1819 25.568ZM42.1819 31.496C43.6059 31.496 44.7499 31.392 45.6139 31.184C46.4939 30.96 46.9339 30.616 46.9339 30.152C46.9339 29.704 46.4939 29.368 45.6139 29.144C44.7499 28.92 43.6059 28.808 42.1819 28.808C40.7579 28.808 39.6059 28.92 38.7259 29.144C37.8619 29.368 37.4299 29.704 37.4299 30.152C37.4299 30.616 37.8619 30.96 38.7259 31.184C39.6059 31.392 40.7579 31.496 42.1819 31.496Z" fill="white"/>
</svg>
